# xmcd
#
# Track frame offsets: 
#        150
#        18025
#        38724
#        57925
#        75437
#        91675
#        109075
#        124374
#        139075
#        154900
#        170987
#        188574
#
# Disc length: 2766 seconds
#
# Revision: 0
# Processed by: cddbd v1.5.2PL0 Copyright (c) Steve Scherf et al.
# Submitted via: ExactAudioCopyFreeDBPlugin 1.0
#
DISCID=920acc0c
DTITLE=許志安 - 許志安 In The Name Of... 
DYEAR=2006
DGENRE=Pop
TTITLE0=01. 醜得漂亮 (無線電視劇 <肥田囍事> 主題曲)- 許志安 胡杏兒
TTITLE1=02. 大愛
TTITLE2=03. 任白
TTITLE3=04. 豬先生
TTITLE4=05. 何慧愛
TTITLE5=06. 陳大文
TTITLE6=07. 孫果與了因
TTITLE7=08. 諾貝爾的名單
TTITLE8=09. 你是我的銀河
TTITLE9=10. 李張聯婚
TTITLE10=11. 豬先生 (Piggy Mix)
TTITLE11=12.大愛 (Larger Than Life String Quartet Mix)
EXTD=
EXTT0=
EXTT1=
EXTT2=
EXTT3=
EXTT4=
EXTT5=
EXTT6=
EXTT7=
EXTT8=
EXTT9=
EXTT10=
EXTT11=
PLAYORDER=
